# xmcd
#
# Track frame offsets: 
#        150
#        14142
#        27526
#        42050
#        55819
#        69749
#        83038
#        99083
#        112433
#        125870
#        138975
#        151675
#        166082
#        180531
#        194654
#        207684
#        220389
#        234214
#
# Disc length: 3307 seconds
#
# Revision: 1
# Processed by: cddbd v1.5.2PL0 Copyright (c) Steve Scherf et al.
# Submitted via: ExactAudioCopy v0.95b2
#
DISCID=070ce912
DTITLE=Leroy Carr - Leroy Carr The Essential CD2
DYEAR=2002
DGENRE=Blues
TTITLE0=Mean Mistreating Mama 
TTITLE1=Sloppy Drunk Blues 
TTITLE2=Long Road Blues 
TTITLE3=Four Day Blues 
TTITLE4=A Blues - (featuring Scrapper Blackwell) 
TTITLE5=I Keep The Blues 
TTITLE6=Blues Before Sunrise 
TTITLE7=Blue Night Blues 
TTITLE8=I Believe I'll Make A Change 
TTITLE9=Bo Bo Stomp 
TTITLE10=Church House Blues 
TTITLE11=Just A Rag 
TTITLE12=Ain't It A Shame 
TTITLE13=Big Four Blues 
TTITLE14=How Long Has That Train Been Gone?
TTITLE15=Bad Luck All The Time 
TTITLE16=Six Cold Feet In The Ground 
TTITLE17=My Old Pal Blues - (featuring Scrapper Blackwell)
EXTD=william hale
EXTT0=
EXTT1=
EXTT2=
EXTT3=
EXTT4=
EXTT5=
EXTT6=
EXTT7=
EXTT8=
EXTT9=
EXTT10=
EXTT11=
EXTT12=
EXTT13=
EXTT14=
EXTT15=
EXTT16=
EXTT17=
PLAYORDER=
